# xmcd
#
# Track frame offsets: 
#        150
#        10778
#        26410
#        44138
#        58071
#        75393
#        92938
#        107418
#        123779
#        140905
#        153145
#
# Disc length: 2260 seconds
#
# Revision: 0
# Processed by: cddbd v1.5.2PL0 Copyright (c) Steve Scherf et al.
# Submitted via: ExactAudioCopy v1.3
#
DISCID=8508d20b
DTITLE=Wheeler Walker Jr. - WW III
DYEAR=2018
DGENRE=Country
TTITLE0=Save Some Titty Milk For Me
TTITLE1=I Like Smoking Pot (A Lot)
TTITLE2=Even When
TTITLE3=Fuck You With The Lights On
TTITLE4=I Sucked Another Dick Last Night
TTITLE5=Still Ain't Sick Of Fucking You
TTITLE6=All The Pussy You Will Slay
TTITLE7=Anal and The Dishes
TTITLE8=Addicted
TTITLE9=Rich Sumbitch
TTITLE10=Fuckin' It Up
EXTD=
EXTT0=
EXTT1=
EXTT2=
EXTT3=
EXTT4=
EXTT5=
EXTT6=
EXTT7=
EXTT8=
EXTT9=
EXTT10=
PLAYORDER=
